<?xml version="1.0" encoding="utf-8"?>
<!-- Generator: Adobe Illustrator 15.1.0, SVG Export Plug-In . SVG Version: 6.00 Build 0)  -->
<!DOCTYPE svg PUBLIC "-//W3C//DTD SVG 1.1//EN" "http://www.w3.org/Graphics/SVG/1.1/DTD/svg11.dtd">
<svg version="1.1" id="Selected_Items" xmlns="http://www.w3.org/2000/svg" xmlns:xlink="http://www.w3.org/1999/xlink" x="0px"
	 y="0px" width="550px" height="400px" viewBox="0 0 550 400" enable-background="new 0 0 550 400" xml:space="preserve">
<g id="Symbol_1">
	<g id="Layer_1">
		<path fill="#785634" d="M90.365,63.93l19.489,2.378l6.636,39.332l-13.726,12.277c0.187-0.651,0.213-1.315,0.078-1.991
			l-9.977-48.977l-1.659-2.544C90.933,64.21,90.653,64.052,90.365,63.93z"/>
		<path fill="#B3793F" d="M103.148,117.645c-1.325,4.541-12.471,4.523-15.984,5.141c-9.408,1.656-18.817,3.312-28.225,4.968
			c-2.21,0.389-4.42,0.778-6.63,1.167c-4.329,0.762-4.96-3.328-5.573-6.391c-1.511-7.553-12.105-48.499-8.083-51.738
			c1.846-1.484,5.396-1.341,7.593-1.639c3.706-0.503,7.411-1.006,11.117-1.509c4.847-0.658,9.693-1.315,14.54-1.972
			c3.592-0.487,7.185-0.974,10.776-1.46c2.429-0.329,6.691-1.668,8.91-0.079c3.038,2.186,3.123,9.732,3.752,12.821
			c1.717,8.428,3.434,16.855,5.15,25.282C101.314,106.273,104.356,113.427,103.148,117.645
			C103.131,117.704,103.335,116.994,103.148,117.645z"/>
		<path fill="#333333" d="M35.82,91.558c4.058,0.124,17.367-2.078,19.392,2.461c3.676,8.241-14.463,5.811-19.035,5.685
			c0.075,4.326,0.295,8.649,0.692,12.958c0.43,4.659,2.191,8.584,3.783,12.959c2.864,7.869,5.458,15.847,7.546,23.958
			C49.9,156.19,51.28,162.906,52,169.7c0.093,0.876,0.348,7.251,0.737,7.251c1.816,0,3.956-0.334,5.737,0
			c3.635-0.047,5.46,4.495,2.92,7.035c-1.446,1.445-3.373,1.216-5.212,1.216c-3.138,0-9.623,1.292-11.467-2.167
			c-1.351-2.432-0.498-7.021-0.706-9.755c-0.264-3.466-0.735-6.913-1.342-10.335c-1.609-9.069-4.135-17.966-7.043-26.697
			c-1.887,16.518-4.411,33.125-9.092,49.109c2.588,0,6.309-0.719,8.771,0.287c6.174,2.525,0.708,7.964-3.586,7.964
			c-3.425,0-6.85,0-10.274,0c-6.151,0-4.305-5.758-3.172-9.528c3.497-11.627,5.721-23.627,7.46-35.63
			c1.025-7.075,1.86-14.176,2.564-21.289c0.86-8.686-0.053-19.104-0.279-27.8c-3.109-0.331-6.411-0.969-8.434-1.346
			c-2.764-0.514-5.516-1.178-8.151-2.167C6.338,93.939,0.743,90.442,0.102,84.523c-0.731-6.746,2.564-10.721,7.051-14.673
			c5.977-5.266,11.955-10.532,17.932-15.797c2.96-2.607,6.031-6.33,9.599-8.146C9.977,31.878,26.354-6.798,53.635,1.038
			c12.279,3.527,19.524,16.478,16.938,28.803c-2.631,12.544-15.087,20.607-27.561,18.896c9.174,5.319,18.27,10.876,26.778,17.222
			c-3.581,0.485-7.162,0.971-10.743,1.457c-2.359,0.32-4.234-1.821-6.166-3.058c-4.399-2.816-8.873-5.515-13.386-8.143
			C38.66,61.59,36.269,89.016,35.82,91.558z M30.8,58.604c-4.389,3.192-8.123,8.039-11.951,11.869
			c-2.574,2.575-8.763,6.693-10.026,10.175c-2.097,8.249,13.529,9.643,19.146,10.22C28.222,80.067,29.254,69.292,30.8,58.604
			C30.703,58.674,29.149,70.012,30.8,58.604z"/>
	</g>
	<g id="Layer_2">
	</g>
</g>
</svg>
