<?xml version="1.0" encoding="utf-8"?>
<!-- Generator: Adobe Illustrator 15.1.0, SVG Export Plug-In . SVG Version: 6.00 Build 0)  -->
<!DOCTYPE svg PUBLIC "-//W3C//DTD SVG 1.1//EN" "http://www.w3.org/Graphics/SVG/1.1/DTD/svg11.dtd">
<svg version="1.1" id="Selected_Items" xmlns="http://www.w3.org/2000/svg" xmlns:xlink="http://www.w3.org/1999/xlink" x="0px"
	 y="0px" width="550px" height="400px" viewBox="0 0 550 400" enable-background="new 0 0 550 400" xml:space="preserve">
<g id="Symbol_1">
	<g id="Layer_1">
		<path fill="#66CCCC" d="M51.587,67.913c-5.253,0.925-10.507,1.85-15.76,2.774c-1.234,0.217-2.468,0.435-3.702,0.652
			c-2.417,0.425-2.77-1.858-3.112-3.568c-0.844-4.218-6.759-27.081-4.514-28.89c1.031-0.829,3.013-0.749,4.24-0.915
			c2.07-0.281,4.139-0.562,6.208-0.843c2.707-0.367,5.413-0.734,8.119-1.101c2.006-0.272,4.012-0.543,6.017-0.815
			c1.356-0.184,3.736-0.932,4.975-0.044c1.696,1.221,1.744,5.435,2.095,7.159c0.959,4.706,1.917,9.412,2.876,14.117
			c0.459,2.254,1.864,6.992,1.065,8.633C59.294,66.712,53.549,67.567,51.587,67.913z"/>
		<path fill="#333333" d="M19.868,50.919c2.266,0.069,9.697-1.161,10.828,1.374c2.053,4.602-8.076,3.245-10.629,3.174
			c0.042,2.416,0.165,4.83,0.387,7.236c0.24,2.601,1.223,4.793,2.112,7.236c1.599,4.394,3.047,8.849,4.213,13.378
			c0.95,3.691,1.721,7.441,2.123,11.235c0.052,0.489,0.194,4.049,0.412,4.049c1.014,0,2.209-0.187,3.204,0
			c2.029-0.026,3.048,2.51,1.63,3.928c-0.808,0.807-1.884,0.679-2.91,0.679c-1.752,0-5.374,0.722-6.403-1.21
			c-0.754-1.358-0.278-3.92-0.395-5.447c-0.147-1.936-0.41-3.86-0.749-5.771c-0.898-5.064-2.309-10.032-3.933-14.907
			c-1.054,9.224-2.463,18.497-5.077,27.421c1.445,0,3.522-0.401,4.897,0.161c3.447,1.41,0.396,4.447-2.002,4.447
			c-1.913,0-3.825,0-5.737,0c-3.435,0-2.404-3.215-1.771-5.32c1.953-6.492,3.195-13.193,4.166-19.895
			c0.572-3.951,1.039-7.916,1.432-11.888c0.48-4.85-0.03-10.667-0.156-15.523c-1.736-0.185-3.58-0.541-4.709-0.751
			c-1.543-0.287-3.08-0.658-4.551-1.21c-2.844-1.066-5.968-3.019-6.326-6.324c-0.408-3.767,1.432-5.986,3.937-8.193
			c3.337-2.94,6.676-5.881,10.013-8.821c1.653-1.456,3.368-3.535,5.36-4.548C5.438,17.594,14.583-4.001,29.815,0.374
			c6.857,1.969,10.902,9.201,9.458,16.083c-1.469,7.004-8.425,11.507-15.39,10.551c5.123,2.971,10.202,6.073,14.952,9.617
			c-2,0.271-3.999,0.542-5.999,0.814c-1.317,0.178-2.364-1.017-3.443-1.708c-2.456-1.572-4.955-3.079-7.474-4.547
			C21.454,34.185,20.119,49.5,19.868,50.919z M17.065,32.518c-2.451,1.782-4.536,4.489-6.673,6.628
			c-1.438,1.438-4.894,3.737-5.599,5.681c-1.171,4.606,7.554,5.385,10.691,5.707C15.625,44.502,16.202,38.486,17.065,32.518
			C17.011,32.557,16.143,38.888,17.065,32.518z"/>
	</g>
	<g id="Layer_2">
	</g>
</g>
</svg>
