<?xml version="1.0" encoding="utf-8"?>
<!-- Generator: Adobe Illustrator 15.1.0, SVG Export Plug-In . SVG Version: 6.00 Build 0)  -->
<!DOCTYPE svg PUBLIC "-//W3C//DTD SVG 1.1//EN" "http://www.w3.org/Graphics/SVG/1.1/DTD/svg11.dtd">
<svg version="1.1" id="Layer_2" xmlns="http://www.w3.org/2000/svg" xmlns:xlink="http://www.w3.org/1999/xlink" x="0px" y="0px"
	 width="970px" height="500px" viewBox="0 0 970 500" enable-background="new 0 0 970 500" xml:space="preserve">
<path fill="none" stroke="#A78052" stroke-miterlimit="10" d="M504.687,40.111c7.223,0.463,10.964,13.888,18.645,17.549
	c7.4,1.186,10.498-1.931,15.354-3.291c4.672,0.815,3.445,7.523,6.582,9.871c10.481-0.064,14.821-3.143,25.227-1.098
	c-10.425,6.029-20.119,12.785-27.419,21.937c1.513,3.972,8.1,2.868,13.159,3.29c-0.144,2.703-0.163,5.285,1.099,6.583
	c19.569,3.463,43.566,2.499,46.066,23.032c5.544,1.157,6.273-2.5,10.967-2.193c2.224,6.55,3.016,14.532,5.485,20.838
	c-7.625,12.735-16.807,34.301-8.775,52.647c3.798,1.688,9.998,0.969,15.355,1.097c-2.272-15.002,4.049-25.994-2.193-36.194
	c2.763-23.928,19.513-10.928,21.936-42.775c21.188-1.078,27.129,21.823,19.743,39.484c3.74,2.952,11.213,0.287,12.064-3.29
	c2.886,2.598,6.612,4.356,7.677,8.774c-10.13,4.924-16.128,19.61-14.258,32.905c20.131,3.492,47.319-5.191,56.626-19.786
	c-1.843-6.01-6.946-6.728,2.951-13.586c9.538,1.793,17.456,0.986,29.219,0.557c8.899-8.285,12.728-17.354,22.805-24.46
	c20.277-0.928,37.58-5.979,59.494-5.27c2.403-6.507,6.065-14.764,9.877-24.103c3.372-8.262,16.345-12.071,14.258-27.42
	c4.615,1.237,7.891,3.812,13.164,4.388c6.06,15.874,7.47,36.4,16.451,49.355c-17.087,10.239-38.776,12.89-50.453,26.323
	c2.81,8.312-2.629,13.722-2.193,23.033c3.424,2.258,7.79,1.125,14.26,2.194c-4.76,9.863-36.428,8.026-46.067,14.259
	c6.822,7.047,21.87-0.168,30.711,5.483c-17.716,3.236-27.479,4.527-43.875,9.871c-0.842,4.134,1.34,5.243,1.101,8.775
	c-7.006,5.895-8.329,15.17-18.647,15.355c0.433,10.107,3.646,18.921,0.799,30.183c-3.304-5.123-12.812-18.318-14.878-26.176
	c-5.75,8.25-2.369,15.697-1,22c2.807,12.937,14.208,11.537,11.791,27.735c-5.303,2.134-5.979,8.506-9.872,12.066
	c-3.108,2.842-16.805,21.238-15.355,19.741c-6.478,6.681-14.252,8.156-25.227,14.26c-1.822,3.914-5.534,4.247-9.871,7.678
	c-4.684,3.017-5.827,10.905-9.872,8.775c-0.403,6.22-2.305,7.405-2.19,12.063c-4.099,0.1-3.128,1.229-6.582,0
	c-1.073,4.838-5.091,5.62-2.194,13.164c0.524,1.368,3.706,2.338,4.387,4.386c0.984,2.953-0.699,6.971,0,8.773
	c2.426,6.247,6.307,11.355,8.774,18.647c2.607,7.701,6.322,15.616,7.678,25.226c2.661,1.36,5.106,2.938,6.583,5.483
	c0.334,11.307-8.286,13.65-7.678,25.226c-12.87,8.532-21.658-3.004-27.423-10.966c-0.807-12.29,2.561-25.649-4.386-29.613
	c14.403-19.58-13.674-26.403-24.13-37.293c-17.582-0.884-45.147-7.243-65.808-2.191c-2.207,0.539-4.623,2.768-6.581,4.386
	c-1.184,7.399,6.461,5.971,6.581,12.065c-4.973,1.244-9.58,2.848-14.257,4.386c-19.312-12.733-51.366-7.298-74.585-1.098
	c-2.946,18.258-22.584,19.823-27.419,36.192c0.155,3.503,2.805,16.399,3.284,19.417c-19.91-5.685-33.398-16.51-43.864-31.479
	c0.671-12.11-9.835-18.536-8.776-27.421c-6.11-9.971-18.083-7.037-26.323-1.098c-2.357,2.811,1.008,6.218-1.096,7.678
	c-8.142,4.191-14.8-5.449-24.339-3.44c-10.017-17.403-24.1-27.092-34.889-43.723c-10.346,0.255-19.032,2.173-20.839,10.968
	c-43.628,2.165-71.886-0.753-89.938-25.228c-14.796-1.792-23.266,11.681-37.292,14.26c-11.373-10.978-11.402-26.572-23.033-37.291
	c-9.03,2.085-15.128-1.437-21.936-4.388c-2.262-6.877-5.752-12.526-6.582-20.837c-4.134-0.845-5.242,1.335-8.774,1.096
	c-2.847-9.555-13.934-22.951-6.582-29.613c-11.024-12.739-23.225-24.304-31.808-39.485c0.955-5.518-0.039-8.624-0.828-12.759
	c7.75-10.25,10.25-16.75,9.602-20.145c-2.386-9.312-12.131-11.266-15.355-19.742c0.261-3.76,5.857-2.185,6.58-5.483
	c10.042-38.581,9.931-78.583-2.193-114.067c7.021,6.892,21.812,5.08,24.129-4.388c0.226-4.611-4.168-4.606-4.387-8.774
	c132.019-0.769,260.668,1.834,392.654,1.097C505.69,42.762,506.309,40.315,504.687,40.111z"/>
</svg>
