<?xml version="1.0" encoding="utf-8"?>
<!-- Generator: Adobe Illustrator 15.1.0, SVG Export Plug-In . SVG Version: 6.00 Build 0)  -->
<!DOCTYPE svg PUBLIC "-//W3C//DTD SVG 1.1//EN" "http://www.w3.org/Graphics/SVG/1.1/DTD/svg11.dtd">
<svg version="1.1" id="Layer_1" xmlns="http://www.w3.org/2000/svg" xmlns:xlink="http://www.w3.org/1999/xlink" x="0px" y="0px"
	 width="970px" height="500px" viewBox="0 0 970 500" enable-background="new 0 0 970 500" xml:space="preserve">
<path fill-rule="evenodd" clip-rule="evenodd" fill="none" stroke="#231F20" stroke-miterlimit="10" d="M774.487,252.615
	c-7.507,3.324,10.956,25.819,2.106,46.048c-5.332,12.189-17.815,15.831-26.795,23.915c-5.912,5.32-14.547,9.41-33.888,23.141
	c-19.34,13.73-12.533,36.331-10.452,47.643c2.679,14.558,15.324,40.609,16.463,44.87c1.14,4.26-1.214,20.982-3.173,23.684
	c-1.96,2.701-6.836,4.535-9.86,1.384c-3.024-3.152-26.787-37.752-27.438-44.647c-0.863-9.143-1.932-30.181-14.966-30.592
	c-6.962-0.22-18.42,7.632-19.976,4.17c-1.557-3.463-11.928-9.262-15.747-10.207c-8.568-2.117-40.5-3.497-47.873,2.888
	c-5.997,5.191,8.428,13.905,7.303,16.294c-1.122,2.389-11.557,0.244-16.153-1.123c-4.595-1.368-17.927-4.076-19.741-4.648
	c-7.069-2.228-15.785-3.265-23.123-1.695c-13.136,2.808-12.612,2.037-22.733,10.558c-11.767,9.905-23.458,16.153-25.425,24.582
	c-1.966,8.428,3.133,20.935-0.562,23.036c-3.694,2.102-21.97-11.898-33.569-30.357c-3.944-6.276-8.966-11.754-13.007-17.96
	c-9.33-14.332-21.22-10.82-32.226-1.268c-11.999,10.415-43.622-39.811-49.306-40.62c-3.754-0.535-23.699-5.255-23.851,2.441
	c-0.152,7.697-41.692,1.577-47.479-1.332c-5.786-2.91-24.79-10.746-27.802-11.506c-7.251-1.828-14.634-3.126-22.056-4.014
	c-4.401-0.525-18.71,0.915-21.902-1.649c-3.374-2.714-4.625-7.965-7.412-11.25c-3.235-3.812-11.991-7.194-11.991-7.194
	s-7.727-7.565-11.064-9.05c-1.462-0.65-13.122,0.25-14.949-2.388c-1.826-2.636-12.026-24.253-21.008-34.62
	c-3.512-4.055-7.01-8.456-7.577-13.987c-0.599-5.846,5.07-10.254,3.943-15.052c-1.126-4.797-6.286,1.939-8.366,4.335
	c-7.944-1.719-12.469-15.642-14.854-22.179c-3.793-10.401-5.569-17.943-5.382-26.24c0.187-8.296-5.596-30.718-4.811-40.468
	c0.714-8.873,5.2-17.165,6.573-25.956c0.783-5.012-0.845-10.137-0.342-15.195c0.624-6.271,3.054-12.018,2.655-18.458
	c-0.607-9.788-4.832-20.76-6.329-30.729c-0.164-1.093-0.142-1.614-0.499-2.499c-1.019-2.527-2.029-5.203-2.764-7.827
	c-0.868-3.101-3.999-6.973-2.065-9.44c1.933-2.466,6.298-1.696,12.383,4.062c20.62,9.135,10.124-13.427,13.446-17.167
	c7.421-1.819,31.849-1.052,33.878-1.044c11.481,0.045,59.407,0.517,66.77,0.517c37.8,0,75.6-0.001,113.4-0.002
	c39.03-0.001,78.061-0.002,117.093-0.001c19.212,0,48.527,1.735,58.071,3.114c9.545,1.378,30.691,14.227,41.43,15.762
	c10.74,1.536,22.526,2.925,20.498,6.158c-2.028,3.234-23.785,15.336-25.065,21.792c-1.279,6.456,8.367-3.066,18.26,3.247
	c9.893,6.312,30.018-13.525,30.607-7.084c0.592,6.44,3.929,6.995,15.229,10.805c11.299,3.81,23.119-8.062,29.528-4.109
	s12.84,7.447,7.704,12.583c-5.136,5.135-22.855-1.292-33.383,12.729c-10.525,14.021-9.722,28.029-11.537,40.39
	c-1.813,12.359,0.967,36.976,13.685,26.434c2.802-2.323,8.301-13.466,6.841-27.427c-1.458-13.961,2.245-27.357,11.6-37.692
	c9.354-10.334,17.344-14.534,30.77,7.649c3.276,15.12-11.028,18.004-8.596,22.74c2.433,4.735,10.271-10.028,15.083-8.295
	c4.811,1.732,7.377,8.666,3.783,21.248c-3.595,12.582-10.962,18.819-10.406,22.294c0.558,3.474,1.933,13.655,31.719,3.383
	c29.786-10.271,30.485-26.466,34.151-30.556c3.666-4.091,27.332,4.93,30.296-3.791c3.414-10.05-5.517-8.715,3.772-17.205
	c0.959-0.876,16.034-13.775,16.034-11.963c3.804,0,30.569,1.48,42.231-0.754c11.66-2.235,19.767-19.283,23.472-27.656
	c3.706-8.373,8.76-21.596,12.958-22.605c4.198-1.01,16.558,6.756,18.187,10.578c1.626,3.817,12.683,40.287,11.202,42.756
	c-1.481,2.47-11.19,9.799-18.034,10.522c-6.841,0.723-13.745,6.222-16.706,9.185c-4.26,4.264-12.988,10.003-15.871,15.347
	c-5.064,9.386,5.215,21.399,6.603,25.706c2.961,9.187-5.821,1.452-7.866,1.966c-7.002,1.765-16.655,3.844-23.575,5.818
	c-10.137,2.891-19.434,8.333-18.424,16.938c1.008,8.604-10.982,15.215-15.593,23.177c-5.2,8.978-0.054,13.028-2.907,18.735
	C784.882,261.438,781.993,249.291,774.487,252.615z"/>
</svg>
